<svg width="178" height="33" viewBox="0 0 178 33" fill="none" xmlns="http://www.w3.org/2000/svg">
<path d="M0.418 32H7.087V4.622H0.418V32ZM29.587 25.682C29.47 17.57 17.692 20.027 17.692 16.556C17.692 15.503 18.55 14.879 20.11 14.879C21.982 14.879 23.113 15.854 23.308 17.336H29.47C29.041 13.046 25.921 9.926 20.305 9.926C14.611 9.926 11.452 12.968 11.452 16.673C11.452 24.668 23.308 22.133 23.308 25.643C23.308 26.618 22.411 27.398 20.695 27.398C18.862 27.398 17.497 26.384 17.341 24.863H10.75C11.062 29.075 14.962 32.312 20.773 32.312C26.233 32.312 29.587 29.465 29.587 25.682ZM51.334 25.682C51.217 17.57 39.439 20.027 39.439 16.556C39.439 15.503 40.297 14.879 41.857 14.879C43.729 14.879 44.86 15.854 45.055 17.336H51.217C50.788 13.046 47.668 9.926 42.052 9.926C36.358 9.926 33.199 12.968 33.199 16.673C33.199 24.668 45.055 22.133 45.055 25.643C45.055 26.618 44.158 27.398 42.442 27.398C40.609 27.398 39.244 26.384 39.088 24.863H32.497C32.809 29.075 36.709 32.312 42.52 32.312C47.98 32.312 51.334 29.465 51.334 25.682ZM54.0881 21.08C54.0881 27.944 58.3391 32.312 63.6431 32.312C66.8801 32.312 69.1811 30.83 70.3901 28.919V32H77.0591V10.238H70.3901V13.319C69.2201 11.408 66.9191 9.926 63.6821 9.926C58.3391 9.926 54.0881 14.216 54.0881 21.08ZM70.3901 21.119C70.3901 24.59 68.1671 26.501 65.6321 26.501C63.1361 26.501 60.8741 24.551 60.8741 21.08C60.8741 17.609 63.1361 15.737 65.6321 15.737C68.1671 15.737 70.3901 17.648 70.3901 21.119Z" fill="#FA7A19"/>
<path d="M100.405 4.622H90.1485V32H100.405C109.141 32 114.757 26.423 114.757 18.311C114.757 10.16 109.141 4.622 100.405 4.622ZM96.8175 26.228V10.316H99.9765C105.007 10.316 107.971 13.28 107.971 18.311C107.971 23.342 105.007 26.228 99.9765 26.228H96.8175ZM125.153 21.899C125.153 18.155 126.986 17.063 130.145 17.063H131.978V10.004C129.053 10.004 126.674 11.564 125.153 13.865V10.238H118.484V32H125.153V21.899ZM135.166 32H141.835V10.238H135.166V32ZM138.52 7.976C140.86 7.976 142.459 6.377 142.459 4.388C142.459 2.36 140.86 0.760998 138.52 0.760998C136.141 0.760998 134.542 2.36 134.542 4.388C134.542 6.377 136.141 7.976 138.52 7.976ZM145.342 21.119C145.342 28.022 149.866 32.312 156.262 32.312C161.722 32.312 165.583 29.153 166.714 24.122H159.616C159.031 25.721 157.978 26.618 156.145 26.618C153.766 26.618 152.128 24.746 152.128 21.119C152.128 17.492 153.766 15.62 156.145 15.62C157.978 15.62 159.07 16.595 159.616 18.116H166.714C165.583 12.929 161.722 9.926 156.262 9.926C149.866 9.926 145.342 14.255 145.342 21.119ZM170.281 32H176.95V10.238H170.281V32ZM173.635 7.976C175.975 7.976 177.574 6.377 177.574 4.388C177.574 2.36 175.975 0.760998 173.635 0.760998C171.256 0.760998 169.657 2.36 169.657 4.388C169.657 6.377 171.256 7.976 173.635 7.976Z" fill="white"/>
</svg>
