<svg xmlns="http://www.w3.org/2000/svg" version="1.1" xmlns:xlink="http://www.w3.org/1999/xlink" xmlns:svgjs="http://svgjs.com/svgjs" width="414" height="896" preserveAspectRatio="none" viewBox="0 0 414 896">
<defs>
    <filter id="blur">
      <feGaussianBlur in="SourceGraphic" stdDeviation="7" />
    </filter>
  </defs>

    <g mask="url(&quot;#SvgjsMask1041&quot;)" filter="url(#blur)" fill="none">
        <path d="M240.608,743.124C272.162,744.894,309.406,747.379,326.144,720.571C343.405,692.925,327.478,658.663,310.842,630.637C294.667,603.388,272.251,578.167,240.608,576.47C206.271,574.628,171.854,591.824,155.989,622.332C141.052,651.055,151.645,685.309,170.22,711.825C186.01,734.365,213.13,741.583,240.608,743.124" fill="rgba(115, 103, 240, 0.4)" class="triangle-float2"></path>
        <path d="M37.715,454.622C60.417,453.126,80.237,440.783,91.981,421.297C104.165,401.082,108.042,376.569,97.48,355.461C85.745,332.01,63.938,312.823,37.715,312.851C11.53,312.879,-8.595,332.995,-21.829,355.589C-35.244,378.492,-44.213,406.623,-30.536,429.371C-17.139,451.653,11.772,456.332,37.715,454.622" fill="rgba(115, 103, 240, 0.4)" class="triangle-float3"></path>
        <path d="M153.214,190.233C164.358,189.958,172.595,181.092,178.083,171.389C183.466,161.872,186.122,150.644,181.097,140.933C175.683,130.47,164.983,122.788,153.214,123.328C142.131,123.836,134.772,133.575,129.433,143.301C124.352,152.557,121.351,163.252,126.124,172.671C131.337,182.96,141.684,190.518,153.214,190.233" fill="rgba(115, 103, 240, 0.4)" class="triangle-float2"></path>
        <path d="M170.074,461.365C186.985,460.333,198.752,446.52,207.158,431.811C215.479,417.25,221.319,400.164,213.543,385.304C205.289,369.53,187.866,360.312,170.074,360.941C153.245,361.536,140.324,373.783,131.619,388.199C122.527,403.256,116.04,421.302,124.223,436.872C132.863,453.312,151.536,462.496,170.074,461.365" fill="rgba(115, 103, 240, 0.4)" class="triangle-float3"></path>
        <path d="M119.623,828.732C133.645,828.302,146.777,821.462,153.732,809.278C160.63,797.194,158.882,782.929,152.958,770.339C145.764,755.051,136.519,736.83,119.623,736.794C102.701,736.758,93.706,755.11,86.043,770.197C79.325,783.423,74.3,798.623,81.682,811.49C89.091,824.405,104.741,829.189,119.623,828.732" fill="rgba(115, 103, 240, 0.4)" class="triangle-float1"></path>
        <path d="M76.066,519.111C88.779,518.57,96.834,507.006,103.113,495.939C109.28,485.071,114.658,472.462,108.795,461.427C102.659,449.879,89.143,444.96,76.066,445.036C63.135,445.111,50.539,450.653,43.991,461.804C37.365,473.087,38.325,487.005,44.716,498.423C51.27,510.133,62.659,519.681,76.066,519.111" fill="rgba(115, 103, 240, 0.4)" class="triangle-float3"></path>
        <path d="M129.276,370.845C153.181,370.681,177.045,362.249,189.608,341.91C202.784,320.577,203.025,293.45,190.494,271.732C177.957,250.003,154.362,237.443,129.276,237.343C104.01,237.243,79.986,249.445,67.21,271.243C54.292,293.282,53.984,321.066,67.494,342.747C80.318,363.326,105.029,371.011,129.276,370.845" fill="rgba(115, 103, 240, 0.4)" class="triangle-float3"></path>
        <path d="M251.084,1002.884C286.625,1003.77,326.313,997.689,343.797,966.734C361.104,936.093,345.426,899.315,326.247,869.81C309.118,843.459,282.513,824.209,251.084,824.101C219.475,823.992,191.586,842.37,175.021,869.291C157.525,897.724,149.525,933.292,166.043,962.304C182.699,991.559,217.43,1002.045,251.084,1002.884" fill="rgba(115, 103, 240, 0.4)" class="triangle-float2"></path>
        <path d="M419.648,507.682C454.643,507.669,487.454,487.344,502.786,455.886C516.629,427.484,504.671,395.222,487.335,368.806C471.963,345.382,447.666,329.209,419.648,329.201C391.616,329.193,367.28,345.336,351.892,368.766C334.526,395.207,322.537,427.514,336.405,455.946C351.755,487.418,384.632,507.695,419.648,507.682" fill="rgba(115, 103, 240, 0.4)" class="triangle-float3"></path>
        <path d="M105.676,858.785C120.66,858.468,133.523,848.97,140.82,835.879C147.916,823.15,147.862,808.041,141.181,795.089C133.841,780.859,121.675,768.363,105.676,767.744C88.763,767.089,73.14,777.266,65.066,792.142C57.334,806.387,59.424,823.582,67.858,837.423C75.933,850.674,90.161,859.113,105.676,858.785" fill="rgba(115, 103, 240, 0.4)" class="triangle-float2"></path>
    </g>
    <defs>
        <mask id="SvgjsMask1041">
            <rect width="414" height="896" fill="#ffffff"></rect>
        </mask>
        <style>
            @keyframes float1 {
                0%{transform: translate(0, 0)}
                50%{transform: translate(-10px, 0)}
                100%{transform: translate(0, 0)}
            }

            .triangle-float1 {
                animation: float1 5s infinite;
            }

            @keyframes float2 {
                0%{transform: translate(0, 0)}
                50%{transform: translate(-5px, -5px)}
                100%{transform: translate(0, 0)}
            }

            .triangle-float2 {
                animation: float2 4s infinite;
            }

            @keyframes float3 {
                0%{transform: translate(0, 0)}
                50%{transform: translate(0, -10px)}
                100%{transform: translate(0, 0)}
            }

            .triangle-float3 {
                animation: float3 6s infinite;
            }
        </style>
    </defs>
</svg>