<svg xmlns="http://www.w3.org/2000/svg" version="1.1" xmlns:xlink="http://www.w3.org/1999/xlink" xmlns:svgjs="http://svgjs.com/svgjs" width="1440" height="560" preserveAspectRatio="none" viewBox="0 0 1440 560">

<defs>
    <filter id="blur">
      <feGaussianBlur in="SourceGraphic" stdDeviation="7" />
    </filter>
  </defs>

    <g mask="url(&quot;#SvgjsMask1034&quot;)" filter="url(#blur)" fill="none">
        <path d="M327.964,396.725C376.063,396.102,417.695,364.752,440.084,322.177C460.977,282.446,458.175,233.98,433.137,196.722C410.615,163.208,368.34,155.791,327.964,155.337C286.492,154.87,242.177,160.18,218.609,194.308C191.997,232.843,188.433,283.948,210.693,325.151C234.023,368.336,278.884,397.361,327.964,396.725" fill="rgba(115, 103, 240, 0.4)" class="triangle-float3"></path>
        <path d="M163.81,149.997C199.575,151.824,236.291,141.385,256.495,111.817C279.425,78.259,286.507,34.376,267.284,-1.435C247.123,-38.993,206.373,-63.176,163.81,-60.843C124.435,-58.685,95.151,-26.718,78.279,8.924C63.83,39.447,68.687,74.24,86.195,103.117C102.99,130.818,131.457,148.344,163.81,149.997" fill="rgba(115, 103, 240, 0.4)" class="triangle-float2"></path>
        <path d="M1014.085,575.809C1054.718,574.093,1084.075,541.606,1104.213,506.273C1124.103,471.375,1136.509,429.921,1117.357,394.613C1097.466,357.942,1055.755,338.12,1014.085,340.115C975.49,341.963,946.474,370.591,926.632,403.746C906.08,438.088,891.594,478.81,909.728,514.488C929.321,553.037,970.881,577.634,1014.085,575.809" fill="rgba(115, 103, 240, 0.4)" class="triangle-float2"></path>
        <path d="M332.892,221.739C348.757,221.658,362.25,211.852,370.675,198.409C379.754,183.921,384.745,166.355,377.221,151.002C368.833,133.886,351.948,121.77,332.892,121.313C313.087,120.838,293.531,131.039,284.723,148.785C276.631,165.089,284.405,183.609,294.434,198.799C303.249,212.15,316.893,221.821,332.892,221.739" fill="rgba(115, 103, 240, 0.4)" class="triangle-float2"></path>
        <path d="M169.776,676.393C217.07,674.771,251.241,636.202,274.087,594.76C295.97,555.063,306.716,507.812,284.486,468.308C261.892,428.157,215.816,411.116,169.776,409.39C119.872,407.52,65.107,416.456,39.138,459.112C12.412,503.011,25.81,558.318,52.293,602.365C77.856,644.882,120.195,678.093,169.776,676.393" fill="rgba(115, 103, 240, 0.4)" class="triangle-float1"></path>
        <path d="M949.435,227.673C973.344,228.987,996.911,217.923,1009.224,197.386C1021.868,176.296,1020.968,149.96,1008.857,128.559C996.556,106.823,974.407,92.115,949.435,91.737C923.813,91.349,898.194,103.753,886.814,126.712C876.34,147.842,887.612,171.342,900.042,191.383C911.584,209.991,927.571,226.471,949.435,227.673" fill="rgba(115, 103, 240, 0.4)" class="triangle-float2"></path>
        <path d="M103.15,562.453C135.053,563.262,165.023,546.091,180.846,518.377C196.542,490.885,194.775,457.174,178.894,429.789C163.068,402.498,134.692,384.986,103.15,384.397C70.542,383.788,37.982,398.246,22.341,426.865C7.218,454.537,15.847,487.514,31.992,514.603C47.676,540.92,72.524,561.676,103.15,562.453" fill="rgba(115, 103, 240, 0.4)" class="triangle-float1"></path>
        <path d="M201.72,172.146C219.638,171.056,235.61,162.651,245.658,147.776C257.306,130.533,267.208,108.626,256.802,90.606C246.397,72.588,222.484,70.347,201.72,71.688C183.622,72.857,167.729,81.88,157.722,97.006C146.353,114.191,137.017,135.972,147.429,153.753C157.777,171.425,181.279,173.39,201.72,172.146" fill="rgba(115, 103, 240, 0.4)" class="triangle-float3"></path>
        <path d="M1243.827,789.368C1298.485,790.662,1349.314,761.278,1377.132,714.211C1405.452,666.294,1409.022,606.131,1380.307,558.45C1352.398,512.106,1297.925,493.143,1243.827,492.854C1189.129,492.562,1131.901,509.466,1104.799,556.979C1077.887,604.16,1093.137,661.536,1121.023,708.148C1148.028,753.288,1191.241,788.123,1243.827,789.368" fill="rgba(115, 103, 240, 0.4)" class="triangle-float2"></path>
        <path d="M1319.343,401.203C1337.099,401.498,1354.535,394.434,1364.022,379.423C1374.175,363.358,1376.238,342.724,1366.683,326.297C1357.174,309.95,1338.254,302.73,1319.343,302.615C1300.2,302.499,1280.347,309.011,1270.998,325.716C1261.815,342.123,1267.024,362.148,1277.164,377.981C1286.441,392.467,1302.143,400.917,1319.343,401.203" fill="rgba(115, 103, 240, 0.4)" class="triangle-float1"></path>
    </g>
    <defs>
        <mask id="SvgjsMask1034">
            <rect width="1440" height="560" fill="#ffffff"></rect>
        </mask>
        <style>
            @keyframes float1 {
                0%{transform: translate(0, 0)}
                50%{transform: translate(-10px, 0)}
                100%{transform: translate(0, 0)}
            }

            .triangle-float1 {
                animation: float1 5s infinite;
            }

            @keyframes float2 {
                0%{transform: translate(0, 0)}
                50%{transform: translate(-5px, -5px)}
                100%{transform: translate(0, 0)}
            }

            .triangle-float2 {
                animation: float2 4s infinite;
            }

            @keyframes float3 {
                0%{transform: translate(0, 0)}
                50%{transform: translate(0, -10px)}
                100%{transform: translate(0, 0)}
            }

            .triangle-float3 {
                animation: float3 6s infinite;
            }
        </style>
    </defs>
</svg>